#!OML:ASF G:\JayActor3\Patient Classification 1\Patient 1\Session 6\male.ASF
:FULLY-SPECIFIED
:DEGREES
1437
root -32.0581 16.4119 -16.8033 175.881 -17.8461 -175.547
lowerback 0.486606 -1.02713 5.14772
upperback 0.265877 -1.37441 0.670524
thorax -0.103065 -0.696129 -2.18595
lowerneck -6.44396 -4.57114 -3.77608
upperneck 0.726036 -6.52963 11.4089
head 1.96196 -3.1989 4.19996
rclavicle -1.38497e-014 -2.14687e-014
rhumerus -29.0619 -7.24761 -84.5116
rradius 31.2418
rwrist 2.05898
rhand -21.3326 -10.518
rfingers 7.12502
rthumb 5.05318 -40.4377
lclavicle -1.38497e-014 -2.14687e-014
lhumerus -46.6477 32.796 60.7512
lradius 15.8449
lwrist 8.7418
lhand -29.2336 7.19221
lfingers 7.12502
lthumb -2.57729 37.1564
rfemur -8.5284 1.9128 18.7858
rtibia 32.6227
rfoot -28.5466 -24.0844
rtoes 3.41896
lfemur -5.35538 10.6407 -9.2276
ltibia 25.7025
lfoot -15.6181 9.80383
ltoes -12.0175
1438
root -32.0599 16.4123 -16.7972 175.862 -18.0831 -175.571
lowerback 0.481568 -1.0473 5.18595
upperback 0.228248 -1.39825 0.604814
thorax -0.143358 -0.708823 -2.27421
lowerneck -6.40192 -4.55816 -3.95439
upperneck 0.839155 -6.50225 11.4364
head 1.99888 -3.18074 4.24719
rclavicle 5.64828e-014 -4.37326e-015
rhumerus -29.2181 -7.21219 -84.5217
rradius 31.1074
rwrist 2.10791
rhand -21.3331 -10.5582
rfingers 7.12502
rthumb 5.05271 -40.478
lclavicle 5.64828e-014 -4.37326e-015
lhumerus -45.4199 32.2387 62.1535
lradius 16.5172
lwrist 9.57959
lhand -29.2742 7.16265
lfingers 7.12502
lthumb -2.61648 37.1263
rfemur -8.47384 1.87632 18.7458
rtibia 32.6133
rfoot -28.7067 -24.1844
rtoes 3.5548
lfemur -5.4337 10.6282 -9.28031
ltibia 25.7212
lfoot -15.5747 9.59261
ltoes -11.9777
1439
root -32.062 16.4128 -16.7908 175.846 -18.3161 -175.593
lowerback 0.482081 -1.06358 5.22389
upperback 0.189807 -1.41661 0.538106
thorax -0.187279 -0.71896 -2.36327
lowerneck -6.38416 -4.55104 -4.09845
upperneck 0.970947 -6.48527 11.4358
head 2.04448 -3.16686 4.27669
rclavicle 2.40747e-014 -5.96354e-015
rhumerus -29.372 -7.20366 -84.5222
rradius 30.949
rwrist 2.16112
rhand -21.2813 -10.4943
rfingers 7.12502
rthumb 5.1027 -40.4128
lclavicle 2.40747e-014 -5.96354e-015
lhumerus -44.1583 31.5386 63.6193
lradius 17.204
lwrist 10.4927
lhand -29.2218 7.14962
lfingers 7.12502
lthumb -2.56587 37.1139
rfemur -8.42883 1.80266 18.7018
rtibia 32.6069
rfoot -28.8281 -24.2735
rtoes 3.6573
lfemur -5.5142 10.6312 -9.33024
ltibia 25.7365
lfoot -15.5256 9.37631
ltoes -11.9744
1440
root -32.0643 16.4133 -16.784 175.831 -18.5415 -175.608
lowerback 0.488814 -1.0745 5.26405
upperback 0.151562 -1.42757 0.471705
thorax -0.234003 -0.725567 -2.45323
lowerneck -6.4088 -4.54969 -4.15293
upperneck 1.23559 -6.49524 11.7203
head 1.94987 -3.14193 3.94002
rclavicle -3.64024e-014 -4.96962e-016
rhumerus -29.5137 -7.23941 -84.5106
rradius 30.7569
rwrist 2.23998
rhand -21.1759 -10.3281
rfingers 7.12502
rthumb 5.20449 -40.2442
lclavicle -3.64024e-014 -4.96962e-016
lhumerus -42.9159 30.8211 65.0317
lradius 17.8853
lwrist 11.3134
lhand -29.2638 7.05481
lfingers 7.12502
lthumb -2.60646 37.0186
rfemur -8.39116 1.73027 18.6634
rtibia 32.6005
rfoot -28.9399 -24.3643
rtoes 3.7505
lfemur -5.59881 10.6488 -9.373
ltibia 25.7528
lfoot -15.4756 9.15637
ltoes -11.9879
1441
root -32.0667 16.4137 -16.7768 175.812 -18.7583 -175.611
lowerback 0.503086 -1.08066 5.31178
upperback 0.117215 -1.43199 0.405984
thorax -0.280615 -0.728967 -2.54671
lowerneck -6.43196 -4.56192 -4.225
upperneck 1.37639 -6.5103 11.6886
head 1.9975 -3.14288 3.93945
rclavicle 5.38396e-014 -1.76918e-014
rhumerus -29.6287 -7.33383 -84.4887
rradius 30.5173
rwrist 2.36172
rhand -21.0275 -10.0861
rfingers 7.12502
rthumb 5.3478 -39.9987
lclavicle 5.38396e-014 -1.76918e-014
lhumerus -41.6289 29.9052 66.5269
lradius 18.5712
lwrist 12.2377
lhand -29.4148 6.90694
lfingers 7.12502
lthumb -2.75232 36.8689
rfemur -8.35919 1.61274 18.6324
rtibia 32.5911
rfoot -28.9583 -24.4856
rtoes 3.69969
lfemur -5.68359 10.6792 -9.40185
ltibia 25.7735
lfoot -15.427 8.92871
ltoes -12.0286
1442
root -32.0694 16.414 -16.7694 175.783 -18.9691 -175.603
lowerback 0.525584 -1.08385 5.36728
upperback 0.0889419 -1.4323 0.342966
thorax -0.32538 -0.7303 -2.64175
lowerneck -6.46272 -4.58003 -4.27167
upperneck 1.50999 -6.5341 11.6422
head 2.04362 -3.14857 3.92976
rclavicle 4.17199e-014 4.57205e-015
rhumerus -29.7417 -7.43516 -84.454
rradius 30.2609
rwrist 2.48219
rhand -20.9291 -9.95219
rfingers 7.12502
rthumb 5.44277 -39.8623
lclavicle 4.17199e-014 4.57205e-015
lhumerus -40.3231 28.7927 68.082
lradius 19.2638
lwrist 13.2464
lhand -29.6172 6.74875
lfingers 7.12502
lthumb -2.94781 36.7081
rfemur -8.31953 1.46601 18.6078
rtibia 32.5772
rfoot -28.9546 -24.5806
rtoes 3.66309
lfemur -5.76182 10.7131 -9.41733
ltibia 25.7988
lfoot -15.3781 8.70188
ltoes -12.0898
1443
root -32.0722 16.4142 -16.7619 175.745 -19.1755 -175.584
lowerback 0.552886 -1.08424 5.42658
upperback 0.0671504 -1.42892 0.283659
thorax -0.365851 -0.7297 -2.73516
lowerneck -6.5001 -4.59886 -4.29672
upperneck 1.63456 -6.55845 11.5762
head 2.08677 -3.15494 3.91051
rclavicle -1.02374e-014 8.74653e-015
rhumerus -29.8549 -7.53107 -84.4061
rradius 29.9944
rwrist 2.59084
rhand -20.876 -9.9018
rfingers 7.12502
rthumb 5.49409 -39.8106
lclavicle -1.02374e-014 8.74653e-015
lhumerus -39.0478 27.625 69.5883
lradius 19.9545
lwrist 14.1956
lhand -29.6862 6.66399
lfingers 7.12502
lthumb -3.01439 36.6224
rfemur -8.27129 1.32251 18.5918
rtibia 32.5585
rfoot -28.9599 -24.6599
rtoes 3.67241
lfemur -5.83437 10.7277 -9.42605
ltibia 25.8276
lfoot -15.3334 8.49148
ltoes -12.1402
